<?xml version="1.0" standalone="no"?><!DOCTYPE svg PUBLIC "-//W3C//DTD SVG 1.1//EN" "http://www.w3.org/Graphics/SVG/1.1/DTD/svg11.dtd"><svg t="1767687886863" class="icon" viewBox="0 0 1024 1024" version="1.1" xmlns="http://www.w3.org/2000/svg" p-id="6663" xmlns:xlink="http://www.w3.org/1999/xlink" width="200" height="200"><path d="M454.144 688.64h267.264a31.744 31.744 0 0 1 35.84 35.84 31.744 31.744 0 0 1-35.84 35.84H454.144a31.744 31.744 0 0 1-35.84-35.84 31.744 31.744 0 0 1 35.84-35.84z m0 0M454.144 495.872h267.264a31.744 31.744 0 0 1 35.84 35.84 31.744 31.744 0 0 1-35.84 35.84H454.144a31.744 31.744 0 0 1-35.84-35.84 31.488 31.488 0 0 1 35.84-35.84z m0 0M454.144 303.104h267.264a31.488 31.488 0 0 1 35.84 35.584 31.744 31.744 0 0 1-35.84 35.84H454.144a31.488 31.488 0 0 1-35.84-35.84 31.488 31.488 0 0 1 35.84-35.584z m0 0" p-id="6664"></path><path d="M489.984 896l340.48-7.936a7.936 7.936 0 0 0 7.936-7.936V164.608H193.536c-5.632 0-7.936 2.048-7.936 0v729.6h7.936z m0 71.68H193.536a76.8 76.8 0 0 1-79.616-72.96V164.608a76.8 76.8 0 0 1 79.616-72.96h636.928a76.8 76.8 0 0 1 79.616 72.96v715.008a79.616 79.616 0 0 1-76.8 79.616l-341.504 7.936z m0 0" p-id="6665"></path><path d="M281.6 724.992a39.936 39.936 0 1 0 20.48-33.792 40.192 40.192 0 0 0-20.48 33.792z m0 0M281.6 532.224a39.936 39.936 0 0 0 19.968 34.304 39.424 39.424 0 0 0 39.68 0 39.68 39.68 0 0 0 0-68.864 39.424 39.424 0 0 0-39.68 0 39.936 39.936 0 0 0-19.968 34.56z m0 0M281.6 339.2a39.936 39.936 0 0 0 19.968 34.56 39.424 39.424 0 0 0 39.68 0 39.936 39.936 0 0 0 19.968-34.56 39.936 39.936 0 0 0-79.616 0z m0 0" p-id="6666"></path></svg>